<mxfile host="65bd71144e">
    <diagram id="D0d9TCc8zK_jnnbvQLJB" name="ページ1">
        <mxGraphModel dx="1158" dy="651" grid="1" gridSize="10" guides="1" tooltips="1" connect="1" arrows="1" fold="1" page="1" pageScale="1" pageWidth="827" pageHeight="1169" math="0" shadow="0">
            <root>
                <mxCell id="0"/>
                <mxCell id="1" parent="0"/>
                <mxCell id="4" value="&lt;font style=&quot;font-size: 16px;&quot; color=&quot;#1c1c1c&quot;&gt;CoNoHa(Rocky Linux)&lt;/font&gt;" style="rounded=1;whiteSpace=wrap;html=1;align=center;verticalAlign=top;fillColor=#99CCFF;strokeColor=none;" parent="1" vertex="1">
                    <mxGeometry x="120" y="110" width="440" height="360" as="geometry"/>
                </mxCell>
                <mxCell id="3" value="" style="rounded=1;whiteSpace=wrap;html=1;glass=0;shadow=0;fillColor=#b1ddf0;strokeColor=none;" parent="1" vertex="1">
                    <mxGeometry x="150" y="150" width="380" height="290" as="geometry"/>
                </mxCell>
                <mxCell id="2" value="" style="sketch=0;aspect=fixed;html=1;points=[];align=center;image;fontSize=12;image=img/lib/mscae/Docker.svg;" parent="1" vertex="1">
                    <mxGeometry x="150" y="139" width="50" height="41" as="geometry"/>
                </mxCell>
                <mxCell id="5" value="" style="image;html=1;image=img/lib/clip_art/computers/Server_Tower_128x128.png;rounded=1;shadow=0;glass=0;sketch=0;strokeColor=default;fontSize=16;fontColor=#1C1C1C;fillColor=#99CCFF;" parent="1" vertex="1">
                    <mxGeometry x="230" y="112" width="30" height="30" as="geometry"/>
                </mxCell>
                <mxCell id="9" value="&lt;font color=&quot;#000000&quot;&gt;nginx&lt;/font&gt;" style="rounded=1;whiteSpace=wrap;html=1;shadow=0;glass=0;sketch=0;strokeColor=none;fontSize=16;fillColor=#fad7ac;" parent="1" vertex="1">
                    <mxGeometry x="170" y="300" width="70" height="40" as="geometry"/>
                </mxCell>
                <mxCell id="10" value="&lt;font color=&quot;#000000&quot;&gt;Python&lt;/font&gt;" style="rounded=1;whiteSpace=wrap;html=1;shadow=0;glass=0;sketch=0;strokeColor=none;fontSize=16;fillColor=#fad7ac;verticalAlign=top;" parent="1" vertex="1">
                    <mxGeometry x="300" y="170" width="190" height="100" as="geometry"/>
                </mxCell>
                <mxCell id="11" value="&lt;font color=&quot;#000000&quot;&gt;Gunicorn&lt;/font&gt;" style="rounded=1;whiteSpace=wrap;html=1;shadow=0;glass=0;sketch=0;strokeColor=none;fontSize=16;fillColor=#b0e3e6;" parent="1" vertex="1">
                    <mxGeometry x="320" y="210" width="70" height="40" as="geometry"/>
                </mxCell>
                <mxCell id="12" value="&lt;font color=&quot;#000000&quot;&gt;Django&lt;/font&gt;" style="rounded=1;whiteSpace=wrap;html=1;shadow=0;glass=0;sketch=0;strokeColor=none;fontSize=16;fillColor=#b0e3e6;" parent="1" vertex="1">
                    <mxGeometry x="400" y="210" width="70" height="40" as="geometry"/>
                </mxCell>
                <mxCell id="13" value="&lt;font color=&quot;#000000&quot;&gt;MySQL&lt;/font&gt;" style="rounded=1;whiteSpace=wrap;html=1;shadow=0;glass=0;sketch=0;strokeColor=none;fontSize=16;fillColor=#fad7ac;" parent="1" vertex="1">
                    <mxGeometry x="400" y="290" width="70" height="60" as="geometry"/>
                </mxCell>
                <mxCell id="14" value="&lt;font color=&quot;#000000&quot;&gt;Apache&lt;/font&gt;" style="rounded=1;whiteSpace=wrap;html=1;shadow=0;glass=0;sketch=0;strokeColor=none;fontSize=16;fillColor=#fad7ac;" parent="1" vertex="1">
                    <mxGeometry x="305" y="360" width="70" height="60" as="geometry"/>
                </mxCell>
                <mxCell id="16" value="&lt;font color=&quot;#000000&quot;&gt;JavaScript &lt;br&gt;Apps&lt;br&gt;&lt;/font&gt;" style="rounded=1;whiteSpace=wrap;html=1;shadow=0;glass=0;sketch=0;strokeColor=none;fontSize=16;fillColor=#d0cee2;" parent="1" vertex="1">
                    <mxGeometry x="390" y="360" width="100" height="60" as="geometry"/>
                </mxCell>
                <mxCell id="17" style="html=1;fontSize=16;fontColor=#000000;strokeColor=#ae4132;endArrow=none;endFill=0;fillColor=#fad9d5;entryX=0;entryY=0.5;entryDx=0;entryDy=0;" parent="1" target="11" edge="1">
                    <mxGeometry relative="1" as="geometry">
                        <mxPoint x="240" y="320" as="sourcePoint"/>
                    </mxGeometry>
                </mxCell>
                <mxCell id="18" style="html=1;fontSize=16;fontColor=#000000;strokeColor=#ae4132;endArrow=none;endFill=0;fillColor=#fad9d5;" parent="1" source="11" target="12" edge="1">
                    <mxGeometry relative="1" as="geometry">
                        <mxPoint x="370" y="302.6086956521739" as="sourcePoint"/>
                        <mxPoint x="450" y="240" as="targetPoint"/>
                    </mxGeometry>
                </mxCell>
                <mxCell id="19" style="html=1;fontSize=16;fontColor=#000000;strokeColor=#ae4132;endArrow=none;endFill=0;fillColor=#fad9d5;entryX=0.5;entryY=1;entryDx=0;entryDy=0;exitX=0.497;exitY=0.015;exitDx=0;exitDy=0;exitPerimeter=0;" parent="1" source="13" target="12" edge="1">
                    <mxGeometry relative="1" as="geometry">
                        <mxPoint x="400" y="240" as="sourcePoint"/>
                        <mxPoint x="410" y="240" as="targetPoint"/>
                    </mxGeometry>
                </mxCell>
                <mxCell id="20" style="html=1;fontSize=16;fontColor=#000000;strokeColor=#ae4132;endArrow=none;endFill=0;fillColor=#fad9d5;exitX=0;exitY=0.5;exitDx=0;exitDy=0;entryX=1;entryY=0.5;entryDx=0;entryDy=0;" parent="1" source="14" target="9" edge="1">
                    <mxGeometry relative="1" as="geometry">
                        <mxPoint x="250" y="302.6086956521739" as="sourcePoint"/>
                        <mxPoint x="330" y="240" as="targetPoint"/>
                    </mxGeometry>
                </mxCell>
                <mxCell id="21" style="html=1;fontSize=16;fontColor=#000000;strokeColor=#ae4132;endArrow=none;endFill=0;fillColor=#fad9d5;entryX=0;entryY=0.5;entryDx=0;entryDy=0;exitX=1;exitY=0.5;exitDx=0;exitDy=0;" parent="1" source="14" target="16" edge="1">
                    <mxGeometry relative="1" as="geometry">
                        <mxPoint x="260" y="312.6086956521739" as="sourcePoint"/>
                        <mxPoint x="340" y="250" as="targetPoint"/>
                    </mxGeometry>
                </mxCell>
            </root>
        </mxGraphModel>
    </diagram>
</mxfile>
